<?xml version="1.0" standalone="no"?>
<!DOCTYPE svg PUBLIC "-//W3C//DTD SVG 20010904//EN"
 "http://www.w3.org/TR/2001/REC-SVG-20010904/DTD/svg10.dtd">
<svg version="1.0" xmlns="http://www.w3.org/2000/svg"
 width="256.000000pt" height="256.000000pt" viewBox="0 0 256.000000 256.000000"
 preserveAspectRatio="xMidYMid meet">
<metadata>
Created by potrace 1.11, written by Peter Selinger 2001-2013
</metadata>
<g transform="translate(0.000000,256.000000) scale(0.100000,-0.100000)"
fill="#000000" stroke="none">
<path d="M1130 2544 c-327 -69 -568 -303 -641 -624 -17 -76 -22 -224 -10 -296
24 -133 76 -252 164 -374 l42 -58 -1 -116 c0 -102 -3 -119 -21 -139 -11 -12
-35 -44 -54 -72 -144 -213 -123 -414 65 -613 55 -58 65 -54 145 47 46 59 93
147 106 196 14 56 14 146 -1 201 -18 71 -43 118 -104 199 l-50 66 0 80 0 79
48 -35 c99 -71 244 -127 363 -141 l57 -7 -2 -96 -1 -96 -48 -62 c-43 -55 -95
-152 -105 -193 -2 -8 -6 -47 -9 -86 -9 -118 45 -250 146 -355 65 -67 70 -67
142 21 60 74 76 100 105 177 56 149 22 296 -105 453 -35 44 -36 45 -37 142 0
54 2 98 5 98 52 4 199 35 231 50 98 45 161 79 191 102 20 15 38 28 40 28 2 0
3 -36 3 -79 l-2 -79 -55 -73 c-84 -113 -117 -205 -112 -312 5 -91 53 -207 115
-277 12 -14 30 -34 39 -46 15 -19 52 -44 65 -44 14 0 88 87 127 148 112 177
98 353 -41 537 l-52 69 0 118 1 118 46 63 c118 156 167 315 160 517 -11 357
-245 651 -595 750 -94 27 -267 33 -360 14z"/>
</g>
</svg>
